<svg xmlns:rdf="http://www.w3.org/1999/02/22-rdf-syntax-ns#" xmlns="http://www.w3.org/2000/svg" xml:space="preserve" height="72" viewBox="0 0 379.99999 72.000001" width="380" version="1.1" xmlns:cc="http://creativecommons.org/ns#" xmlns:dc="http://purl.org/dc/elements/1.1/"><g transform="matrix(1.25 0 0 -1.25 0 72)"><g transform="matrix(.27115 0 0 .27115 -44.93 -140.11)"><path d="m1050.1 579.56h15.509l-7.7494 18.523-7.7592-18.523zm16.642-2.5186h-17.773l-2.0916-4.9561c-1.3748-3.276-2.0688-5.2914-2.0688-6.0259 0-0.4728 0.1372-0.8107 0.3889-1.0193 0.2518-0.1981 0.9023-0.3659 1.9545-0.4929l2.9481-0.3357v-1.9417c-1.9619 0.1474-4.1783 0.2214-6.6461 0.2214-2.9506 0-5.5429-0.074-7.7797-0.2214v1.9417l0.9252 0.0307c1.4386 0.043 2.361 0.1882 2.7831 0.4422 0.4192 0.2593 0.8691 0.892 1.3419 1.8986 1.4485 2.9506 2.9404 6.1427 4.4628 9.5664l8.4532 19.16c2.257 5.0805 3.7996 8.7783 4.618 11.076h2.0916l15.557-36.212c1.0522-2.4551 1.7433-3.937 2.1019-4.4402 0.3455-0.5057 0.7446-0.8614 1.1945-1.0726 0.4524-0.2186 1.4587-0.366 3.0447-0.4499v-1.9417c-2.666 0.1474-5.2076 0.2214-7.6298 0.2214-2.2595 0-5.2636-0.074-9.0096-0.2214v1.9417l3.0447 0.1883c1.0825 0.0737 1.7334 0.1879 1.9315 0.3353 0.3152 0.2211 0.4601 0.5136 0.4601 0.8643 0 0.3659-0.3025 1.3317-0.9125 2.8845l-3.3905 8.5575zm-48.297 26.206c-0.2186-3.0779-0.3353-6.321-0.3353-9.724v-17.531c0-6.5217 0.1675-10.11 0.4929-10.784 0.3254-0.6607 1.5021-0.9964 3.5073-0.9964h2.3077v-1.9417c-3.6318 0.1474-6.7071 0.2214-9.2256 0.2214-2.5441 0-5.599-0.074-9.1673-0.2214v1.9417h2.5846c1.3522 0 2.234 0.1781 2.6433 0.5364 0.4116 0.3659 0.6634 1.0598 0.7674 2.1069 0.2083 2.4069 0.3024 5.4925 0.3024 9.2946v17.564c0 3.4642-0.061 6.6362-0.2083 9.5335h-3.1388c-5.0601 0-7.8534-0.1146-8.3667-0.3558-0.5185-0.2313-0.8516-1.1565-1.0114-2.7527l-0.44-4.1247h-1.929l0.061 3.6649c0 1.4791-0.1245 3.5986-0.3685 6.3612 11.066-0.1346 17.575-0.2083 19.529-0.2083l17.008 0.2083c-0.3863-3.4639-0.6176-6.8037-0.6684-10.026h-1.9136l-0.305 4.0309c-0.1248 1.3952-0.3025 2.2237-0.5236 2.4777-0.2313 0.2543-0.7243 0.4221-1.5123 0.4728-2.2569 0.1679-4.8186 0.2518-7.6881 0.2518h-2.4018zm-55.952-23.687h15.511l-7.7493 18.523-7.7618-18.523zm16.642-2.5186h-17.776l-2.0892-4.9561c-1.3751-3.276-2.0664-5.2914-2.0664-6.0259 0-0.4728 0.1346-0.8107 0.3863-1.0193 0.2543-0.1981 0.9049-0.3659 1.952-0.4929l2.9506-0.3357v-1.9417c-1.9619 0.1474-4.1783 0.2214-6.6462 0.2214-2.948 0-5.5403-0.074-7.7768-0.2214v1.9417l0.9224 0.0307c1.4386 0.043 2.3613 0.1882 2.7805 0.4422 0.4218 0.2593 0.8742 0.892 1.3445 1.8986 1.4513 2.9506 2.9406 6.1427 4.4654 9.5664l8.4506 19.16c2.257 5.0805 3.8021 8.7783 4.618 11.076h2.0891l15.562-36.212c1.0497-2.4551 1.7433-3.937 2.0993-4.4402 0.3481-0.5057 0.7447-0.8614 1.1971-1.0726 0.4499-0.2186 1.4587-0.366 3.0447-0.4499v-1.9417c-2.6685 0.1474-5.2075 0.2214-7.6323 0.2214-2.2595 0-5.2608-0.074-9.0071-0.2214v1.9417l3.0447 0.1883c1.08 0.0737 1.7309 0.1879 1.9316 0.3353 0.3126 0.2211 0.46 0.5136 0.46 0.8643 0 0.3659-0.305 1.3317-0.9124 2.8845l-3.3928 8.5575zm-57.083-11.75c2.0052-0.1043 3.9674-0.1576 5.8708-0.1576 3.8608 0 6.8749 0.1043 9.0479 0.305 1.5123 0.1678 3.0881 0.4626 4.7019 0.8921l1.8501 7.2357h1.9954c-0.516-3.8758-0.9125-7.4973-1.1971-10.857-1.8476-0.3126-4.3691-0.4626-7.5714-0.4626l-14.637 0.2441c-1.972 0-5.0371-0.1171-9.1953-0.3382v1.6265c1.6368 0.7144 2.6025 1.4919 2.9075 2.3128 0.2948 0.8158 0.4397 4.0615 0.4397 9.7419v16.924c0 6.1532-0.1449 9.574-0.4397 10.291-0.305 0.7016-1.1333 1.0599-2.5083 1.0599h-3.3599v1.9315c4.8823-0.1346 8.1252-0.2083 9.7214-0.2083 2.1322 0 5.0295 0.0737 8.6743 0.2083v-1.9315h-3.8123c-1.0829 0-1.7768-0.3178-2.0588-0.9351-0.2949-0.6279-0.4295-3.233-0.4295-7.8001v-19.592l0.0941-8.682-0.0941-1.8071zm-46.411 50.124c-0.1905-3.8962-0.2871-8.0515-0.2871-12.458v-23.179c0-8.1482 0.2466-12.708 0.7322-13.679 0.4852-0.9836 2.0814-1.4689 4.7956-1.4689h2.7984v-2.562c-4.7934 0.1933-8.5626 0.2923-11.335 0.2923-2.4248 0-6.7479-0.099-12.939-0.2923v2.562h3.6572c1.7053 0 2.7981 0.2083 3.2837 0.625 0.4853 0.4297 0.7877 1.2733 0.9275 2.562 0.1375 1.2886 0.2925 5.2253 0.4425 11.793v21.684l-0.1095 8.3945c-0.0558 3.4949-0.4294 5.6271-1.1233 6.4177-0.6914 0.7877-2.3687 1.1792-5.055 1.1792h-2.0231v2.5466c3.3777-0.1247 7.6753-0.1933 12.87-0.1933 3.0498 0 6.4426 0.0839 10.184 0.2364 2.4679 0.1094 4.3232 0.1653 5.599 0.1653 6.552 0 11.318-1.1894 14.286-3.5759 2.9506-2.3814 4.4325-5.5965 4.4325-9.6554 0-2.9531-0.8592-5.777-2.5645-8.509-1.7028-2.7145-4.1148-4.9051-7.2459-6.5546-3.1159-1.6469-6.4556-2.478-10.006-2.478-1.6189 0-3.6573 0.2642-6.0795 0.7752l-0.8184 3.0904c2.384-0.6225 4.364-0.9428 5.9726-0.9428 3.7259 0 6.6921 1.1361 8.8827 3.3953 2.2011 2.257 3.2964 5.3476 3.2964 9.269 0 3.797-1.1792 6.7479-3.5201 8.8801-2.3405 2.1223-5.8201 3.1898-10.448 3.1898-2.6331 0-5.4998-0.5161-8.6057-1.5097zm-58.04-50.12c2.0053-0.1043 3.9671-0.1576 5.8683-0.1576 3.8631 0 6.8774 0.1043 9.0505 0.305 1.5123 0.1678 3.0878 0.4626 4.7018 0.8921l1.8502 7.2357h1.9924c-0.5133-3.8758-0.9096-7.4973-1.1945-10.857-1.8476-0.3126-4.3687-0.4626-7.571-0.4626l-14.634 0.2441c-1.9749 0-5.04-0.1171-9.1978-0.3382v1.6265c1.6367 0.7144 2.6025 1.4919 2.9075 2.3128 0.2948 0.8158 0.4422 4.0615 0.4422 9.7419v16.924c0 6.1532-0.1474 9.574-0.4422 10.291-0.305 0.7016-1.1336 1.0599-2.511 1.0599h-3.3573v1.9315c4.8795-0.1346 8.1252-0.2083 9.7211-0.2083 2.1325 0 5.0298 0.0737 8.6743 0.2083v-1.9315h-3.8123c-1.08 0-1.7739-0.3178-2.0585-0.9351-0.2923-0.6279-0.4295-3.233-0.4295-7.8001v-19.592l0.0939-8.682-0.0939-1.8071zm-38.176 17.87v-7.5381l0.0303-4.3359c0-2.7094 0.0332-4.6817 0.0941-5.9423 2.994-0.2211 6.2065-0.3353 9.6299-0.3353 2.3 0 4.2216 0.104 5.7847 0.3152 0.996 0.1142 2.0687 0.3886 3.192 0.7954 0.5134 1.8071 1.0395 4.0538 1.5758 6.7629h2.056c-0.5539-4.4833-0.8286-7.4846-0.8286-8.9765l0.0638-1.3853c-2.3638-0.2313-4.6817-0.3353-6.9511-0.3353l-4.8317 0.0836c-5.3319 0.1474-9.2486 0.2214-11.747 0.2214-2.4044 0-5.5965-0.074-9.5766-0.2214v1.9417h0.9581c1.7841 0 2.905 0.1781 3.3701 0.5236 0.4601 0.3458 0.7651 1.1667 0.9227 2.4579 0.1573 1.2909 0.231 4.1477 0.231 8.5572v16.881c0 2.7729-0.0635 5.0423-0.2007 6.8063-0.1346 1.7637-0.282 2.8108-0.4294 3.149-0.1576 0.3353-0.3787 0.5973-0.6608 0.7852-0.2948 0.1806-1.1769 0.3481-2.6458 0.483l-2.3738 0.254v1.9114h3.3293l3.2559-0.0941c1.8247-0.0635 3.2125-0.0941 4.1553-0.0941l11.813 0.155 5.5964 0.0332c1.9086 0.01 3.8302-0.0638 5.7847-0.2517-0.7778-2.4171-1.2175-5.5658-1.2912-9.4394h-2.1019c0 2.257-0.1043 4.125-0.3356 5.6271-2.4117 0.9022-5.3852 1.3547-8.913 1.3547-2.8136 0-5.754-0.127-8.8319-0.366 0.023-1.9315 0-3.8656-0.0609-5.7872l-0.0635-4.7347v-6.2473c2.0256-0.127 3.8225-0.1905 5.3855-0.1905 4.8821 0 7.6448 0.1678 8.2854 0.5159 0.6506 0.3356 0.976 1.385 0.976 3.1516v1.9925h2.0891c-0.1474-3.0955-0.2211-5.5659-0.2211-7.4112 0-1.9443 0.0737-4.2418 0.2211-6.8874h-2.0891v1.7842c0 1.9618-0.3889 3.1716-1.154 3.6113-0.7676 0.4422-3.4869 0.6633-8.138 0.6633-1.7232 0-3.5073-0.0836-5.3549-0.2438zm-49.25-17.659c2.7703-0.4116 5.2053-0.61 7.3171-0.61 5.7438 0 10.204 1.4692 13.386 4.4223 3.8327 3.5887 5.7515 8.8166 5.7515 15.697 0 5.9828-1.5936 10.537-4.7857 13.679-3.1921 3.1388-7.8534 4.7044-14.006 4.7044-2.1529 0-4.7146-0.2109-7.6629-0.6407-0.2438-1.9746-0.3685-4.1984-0.3685-6.7096v-20.116c0-3.7058 0.1247-7.1799 0.3685-10.426zm-6.6487-0.1576c0.3382 3.1796 0.4958 8.7353 0.4958 16.675v8.9209c0 3.6573-0.117 6.7961-0.3685 9.4391-0.1474 1.5452-0.3382 2.4375-0.5669 2.6787-0.2415 0.2518-1.08 0.4729-2.539 0.6812l-2.4602 0.3685v1.9315c3.3829-0.0938 5.6625-0.1474 6.8267-0.1474l8.2726 0.0635 6.7402 0.1171c2.7066 0.0405 5.482-0.2211 8.3362-0.8005 2.8465-0.5644 5.4286-1.7206 7.749-3.454 2.3205-1.7309 4.0845-3.9039 5.2915-6.5191 1.2098-2.6255 1.8173-5.637 1.8173-9.063 0-6.9284-2.3307-12.66-7.0044-17.196-4.6613-4.5365-10.761-6.7935-18.279-6.7935l-3.7896 0.0839c-3.7055 0.1474-6.0588 0.2211-7.045 0.2211-1.6597 0-3.7692-0.1247-6.3309-0.3659v1.4689l2.8539 1.69zm-40.38 19.138c2.0078-2.8947 4.4961-6.2546 7.4671-10.087l5.9116-7.6652c1.0497-1.3116 1.7436-2.0562 2.0891-2.2467 0.3456-0.178 0.7115-0.2722 1.0826-0.2722h0.7957v-1.9417c-1.7005 0.1474-3.1924 0.2214-4.4632 0.2214-1.1613 0-2.3913-0.074-3.6825-0.2214l-10.901 14.71c-2.0256 2.7068-4.1961 5.3527-6.5191 7.9373l0.3152 1.0369c1.1843-0.0938 2.0687-0.1474 2.6456-0.1474 3.4211 0 6.0999 0.8819 8.0416 2.6484 1.9315 1.7637 2.91 4.1148 2.91 7.0654 0 2.6433-0.8311 4.712-2.4704 6.2039-1.6367 1.4791-4.0079 2.2263-7.1061 2.2263-2.1501 0-4.3155-0.3988-6.4885-1.1971-0.239-3.2658-0.366-6.7501-0.366-10.458v-14.855c0-7.246 0.1777-11.254 0.5236-12.042 0.3455-0.788 1.4689-1.1872 3.3803-1.1872h2.4066v-1.9417c-3.4132 0.1474-6.2266 0.2214-8.4657 0.2214-1.764 0-4.9535-0.074-9.5638-0.2214v1.9417h2.3103c1.7637 0 2.8031 0.389 3.1311 1.154 0.3328 0.7676 0.493 4.8087 0.493 12.136v14.794c0 6.3539-0.1905 9.9122-0.5667 10.67-0.3787 0.7648-1.6189 1.1435-3.7083 1.1435h-1.6594v1.9647c3.8149-0.1576 6.7224-0.2415 8.7378-0.2415 1.3547 0 3.2964 0.0507 5.8453 0.155 2.9509 0.0942 5.0732 0.1474 6.3641 0.1474 3.5507 0 6.2371-0.3659 8.0719-1.1233 1.84-0.7447 3.2355-1.8272 4.1809-3.2454 0.9555-1.4156 1.4385-3.1085 1.4385-5.0681 0-2.8998-1.042-5.4516-3.1286-7.6677-2.0789-2.2136-5.1035-3.7258-9.053-4.5468zm-57.65-4.9229h15.508l-7.7491 18.523-7.7593-18.523zm16.642-2.5186h-17.776l-2.0892-4.9561c-1.3748-3.276-2.0687-5.2914-2.0687-6.0259 0-0.4728 0.1346-0.8107 0.3889-1.0193 0.254-0.1981 0.9023-0.3659 1.9517-0.4929l2.9508-0.3357v-1.9417c-1.9647 0.1474-4.1782 0.2214-6.6461 0.2214-2.9483 0-5.5431-0.074-7.7771-0.2214v1.9417l0.9201 0.0307c1.4386 0.043 2.3635 0.1882 2.7831 0.4422 0.4192 0.2593 0.8716 0.892 1.3444 1.8986 1.4511 2.9506 2.9404 6.1427 4.4629 9.5664l8.4532 19.16c2.2541 5.0805 3.7996 8.7783 4.6179 11.076h2.0892l15.562-36.212c1.0471-2.4551 1.7436-3.937 2.0993-4.4402 0.3459-0.5057 0.7421-0.8614 1.1971-1.0726 0.4499-0.2186 1.459-0.366 3.0447-0.4499v-1.9417c-2.6685 0.1474-5.2101 0.2214-7.632 0.2214-2.2595 0-5.2611-0.074-9.0099-0.2214v1.9417l3.045 0.1883c1.0825 0.0737 1.7305 0.1879 1.9315 0.3353 0.3149 0.2211 0.4623 0.5136 0.4623 0.8643 0 0.3659-0.3073 1.3317-0.9147 2.8845l-3.3905 8.5575zm-50.078 34.036-12.052-25.093c-4.5289-9.424-8.2295-17.638-11.127-24.678h-1.6214c-1.0117 2.4094-3.8809 8.5929-8.6185 18.553l-14.52 30.082v-31.383c0-7.3017 0.2897-11.46 0.8716-12.443 0.5845-0.9836 2.384-1.4842 5.4185-1.4842h1.4969v-2.562c-3.7561 0.1933-6.8161 0.2923-9.1723 0.2923-1.7053 0-5.1007-0.099-10.184-0.2923v2.562h2.6302c1.7892 0 2.9812 0.2642 3.5759 0.7775 0.5973 0.5136 0.9584 1.4411 1.0956 2.8009 0.3456 3.7817 0.5261 7.8687 0.5261 12.258v22.975c0 5.5406-0.1247 9.2157-0.3608 11.002-0.1094 0.9125-0.5137 1.6215-1.2048 2.1045-0.6786 0.4853-2.0639 0.737-4.1173 0.737h-2.1449v2.5466c4.7094-0.178 7.66-0.2746 8.88-0.2746 1.5503 0 3.7412 0.0966 6.5827 0.2746 3.2709-7.2739 7.0526-15.295 11.32-24.066l10.682-21.961 9.8663 20.34c3.4639 7.1212 7.4112 15.684 11.846 25.687 3.3803-0.178 5.7642-0.2746 7.1492-0.2746 1.5937 0 4.4756 0.0966 8.6465 0.2746v-2.5466h-2.6458c-2.3686 0-3.8251-0.417-4.364-1.2353-0.5283-0.8312-0.7903-3.7971-0.7903-8.9207v-29.667c0-6.6104 0.277-10.392 0.8312-11.363 0.5541-0.9836 2.1044-1.4689 4.6536-1.4689h2.3153v-2.562c-3.7692 0.1933-7.3578 0.2923-10.794 0.2923-3.7945 0-7.7593-0.099-11.902-0.2923v2.562h2.6864c2.1347 0 3.4234 0.4728 3.8681 1.4003 0.455 0.9428 0.6761 4.9459 0.6761 12.042v33.004zm-129.96-2.0537 0.7702-0.5896c-0.9709-4.0842-2.0665-9.0732-3.3015-14.992l-3.6522-17.43c-0.5794-2.9761-0.938-5.0754-1.0854-6.3105-0.0328-0.3889-0.0533-0.7903-0.0533-1.2022 0-0.9913 0.2846-1.4867 0.8666-1.4867 0.7804 0 2.4145 0.9912 4.9156 2.9633l0.3378-0.0839 0.3051-0.7166-0.0942-0.4017c-1.9085-1.667-3.7995-3.0903-5.6548-4.2848-1.8578-1.1792-3.1768-1.7717-3.9572-1.7717-0.432 0-0.7903 0.2313-1.0649 0.6965-0.2744 0.4652-0.4218 1.1616-0.4218 2.0891 0 0.76 0.1576 1.9089 0.4524 3.4387 0.2948 1.5404 0.8563 3.9904 1.6571 7.3452l-0.1576 0.0303c-2.2263-3.746-4.8747-6.9537-7.9551-9.612-3.0827-2.6583-5.4871-3.9878-7.2179-3.9878-0.6228 0-1.1489 0.2112-1.5834 0.6432-0.432 0.432-0.7801 1.2351-1.0446 2.3839-0.2718 1.1515-0.409 2.3763-0.409 3.6522 0 1.7512 0.2948 3.9878 0.864 6.7096 0.5794 2.7119 1.3087 5.0652 2.1934 7.058 0.887 1.9848 1.7739 3.4818 2.6481 4.4957 0.8768 1.0117 2.0486 2.0155 3.5048 2.9965 1.4666 0.9913 2.7323 1.698 3.7871 2.13 1.0647 0.4447 2.1526 0.6556 3.2607 0.6556 1.2021 0 2.933-0.2542 5.1998-0.7701l1.6039 9.358c0.1701 0.7903 0.244 1.4462 0.244 1.9825 0 0.4547-0.1576 0.7699-0.4753 0.9607-0.3178 0.1803-0.887 0.2744-1.7207 0.2744l-2.5948 0.0332-0.2415 0.2514 0.0941 0.7702 0.2438 0.2744c3.8506 0.6227 7.0985 1.436 9.7367 2.4474zm-7.4798-19.908c-1.9417 1.0114-3.9367 1.5072-5.993 1.5072-1.2758 0-2.3204-0.1372-3.1133-0.4119-0.7903-0.2846-1.3926-0.6225-1.7917-1.0318-0.4017-0.4116-0.9301-1.3088-1.5733-2.6813-0.6531-1.3726-1.286-3.0498-1.8983-5.0324-0.6228-1.995-1.0982-3.9469-1.4463-5.8759-0.3381-1.9213-0.5057-3.7894-0.5057-5.5811 0-1.1081 0.1143-1.8783 0.3379-2.3128 0.2313-0.432 0.5794-0.6531 1.0548-0.6531 0.7804 0 1.8986 0.4546 3.3344 1.362 2.1832 1.4032 4.1454 3.2712 5.8762 5.622 1.7308 2.3536 3.0268 4.8543 3.8937 7.5126 0.3886 1.2124 1.0012 3.7463 1.8246 7.5765zm30.049-18.95 0.3379-0.7702-0.0635-0.4017c-5.0652-4.295-9.3705-6.4349-12.893-6.4349-1.1514 0-2.3205 0.3149-3.5252 0.9479-1.1919 0.6228-2.0764 1.5299-2.6685 2.7017-0.5896 1.1716-0.887 2.6813-0.887 4.5162 0 2.5747 0.4346 5.3169 1.2884 8.2295 0.8541 2.9228 1.7078 5.0754 2.5645 6.4681 0.8541 1.3929 2.1399 2.6991 3.8503 3.9243 1.7081 1.2248 3.3347 2.2161 4.8645 2.9659 1.5404 0.7472 3.0271 1.1284 4.4731 1.1284 1.5605 0 2.8363-0.4116 3.8302-1.235 0.9912-0.8235 1.4867-1.9724 1.4867-3.4285 0-1.6776-0.4751-3.2176-1.4232-4.6208-0.9505-1.4156-2.6813-2.755-5.1923-4.0104-2.5211-1.2555-5.5278-2.2899-9.03-3.0906l-1.4565-0.3379c-0.4115-1.9724-0.6125-3.6292-0.6125-4.9485 0-1.8476 0.4119-3.3242 1.2353-4.4223 0.8209-1.0851 1.9823-1.6342 3.4591-1.6342 2.7854 0 6.12 1.5302 10.013 4.58l0.3484-0.127zm-14.223 8.0719c2.1629 0.3886 4.2191 1.0012 6.1609 1.8349 1.9519 0.8336 3.4514 1.9519 4.4858 3.3344 1.0446 1.3929 1.5605 2.806 1.5605 4.2519 0 1.1186-0.2747 1.9418-0.8337 2.4781-0.5593 0.5286-1.2251 0.8033-2.0052 0.8033-0.8643 0-1.8885-0.2543-3.0473-0.7497-1.1616-0.4856-2.196-1.393-3.0931-2.712-0.8972-1.3189-1.9724-4.3993-3.2279-9.2409" style="fill:#252d77;fill-rule:evenodd"/><path d="m1249.1 657.26c2.0053-0.104 3.9699-0.1573 5.8711-0.1573 3.8605 0 6.8746 0.104 9.0477 0.3047 1.5123 0.1652 3.088 0.4601 4.7043 0.8923l1.848 7.2332h1.995c-0.5159-3.8733-0.9125-7.4976-1.1971-10.858-1.8476-0.3127-4.369-0.4601-7.5713-0.4601l-14.637 0.2415c-1.9721 0-5.0372-0.1168-9.1953-0.3356v1.6268c1.6395 0.714 2.6027 1.4919 2.9077 2.3102 0.2948 0.8184 0.4422 4.0612 0.4422 9.7416v16.927c0 6.1529-0.1474 9.5737-0.4422 10.288-0.305 0.7039-1.1335 1.0599-2.5086 1.0599h-3.3599v1.9315c4.8824-0.1346 8.1278-0.2083 9.7239-0.2083 2.1297 0 5.0273 0.0737 8.6718 0.2083v-1.9315h-3.8123c-1.0829 0-1.7714-0.3127-2.0588-0.9354-0.2948-0.6276-0.4295-3.2329-0.4295-7.7973v-19.595l0.094-8.682-0.094-1.8045zm-47.036 14.268h15.508l-7.749 18.52-7.7593-18.52zm16.639-2.5212h-17.773l-2.0917-4.9558c-1.3722-3.2763-2.0661-5.2891-2.0661-6.0261 0-0.4726 0.1346-0.8082 0.3889-1.0165 0.2514-0.1985 0.9022-0.3686 1.9519-0.4958l2.9506-0.3354v-1.9417c-1.9621 0.1474-4.1783 0.2211-6.6461 0.2211-2.9506 0-5.5432-0.0737-7.7797-0.2211v1.9417l0.9252 0.0306c1.4386 0.0431 2.3585 0.188 2.7805 0.4423 0.4218 0.2641 0.8717 0.8946 1.3445 1.9009 1.4485 2.9508 2.9404 6.1429 4.4629 9.5663l8.4506 19.16c2.2592 5.0806 3.8021 8.7761 4.6179 11.074h2.0917l15.559-36.209c1.0522-2.4577 1.7436-3.9393 2.0994-4.4425 0.3483-0.5034 0.7446-0.8592 1.197-1.0701 0.4499-0.2211 1.459-0.3685 3.045-0.4524v-1.9417c-2.6688 0.1474-5.2078 0.2211-7.6323 0.2211-2.2569 0-5.2611-0.0737-9.0074-0.2211v1.9417l3.045 0.188c1.08 0.0737 1.7331 0.1907 1.9316 0.3381 0.3149 0.2211 0.46 0.5134 0.46 0.8615 0 0.3659-0.305 1.332-0.9125 2.8874l-3.393 8.5546zm-74.459 22.05v-21.25c0-4.8415 0.094-8.2116 0.2722-10.123 0.1474-1.4587 0.3911-2.3408 0.7268-2.6557 0.3353-0.3255 1.3215-0.5568 2.9406-0.694l1.9619-0.1576v-1.9417c-2.2366 0.1474-4.252 0.2211-6.0591 0.2211-1.2503 0-4.1147-0.0737-8.6079-0.2211v1.9417h2.2161c1.3317 0 2.2034 0.188 2.6152 0.559 0.4068 0.3663 0.6582 1.0905 0.7625 2.1807 0.2314 2.257 0.3379 5.3221 0.3379 9.2004v15.285c0 2.867-0.033 5.7135-0.096 8.5142-0.031 1.197-0.1985 2.0077-0.4703 2.4477-0.2721 0.4396-0.6812 0.8385-1.22 1.1868-0.5236 0.3456-1.2785 0.5236-2.2468 0.5236h-1.8983v1.9315c2.6024-0.1346 4.5873-0.2083 5.9624-0.2083 1.4816 0 3.0954 0.0737 4.8619 0.2083 2.0257-2.478 3.947-4.8926 5.7311-7.2331 1.7969-2.3536 3.6649-4.7146 5.5863-7.0986l10.519-12.914c3.7922-4.6408 6.5319-7.8533 8.2117-9.6579v19.748c0 8.2649-0.1474 12.778-0.4396 13.544-0.2948 0.7676-1.4817 1.2606-3.5504 1.4616l-2.3103 0.2185v1.9315c3.2964-0.1346 5.8607-0.2083 7.6856-0.2083 1.9111 0 4.3688 0.0737 7.3831 0.2083v-1.9315h-2.3635c-1.9114 0-3.0042-0.6406-3.2964-1.9114-0.178-0.8385-0.2721-5.332-0.2721-13.47v-13.867c0-3.7386 0.1652-8.2014 0.4932-13.389-2.7958 0.432-4.4121 0.7447-4.862 0.9454-0.4524 0.1879-0.8819 0.5134-1.2912 0.9658-2.2796 2.5186-4.6635 5.3246-7.1722 8.3999l-22.111 27.309zm-51.99-12.39c0-4.6409 0.7956-8.6717 2.3816-12.105 1.5959-3.4336 3.7182-6.0058 6.3817-7.7264 2.6685-1.713 5.716-2.5643 9.1471-2.5643 3.1717 0 5.9547 0.7268 8.3259 2.1856 2.3839 1.4589 4.252 3.6345 5.6169 6.5191 1.3648 2.8871 2.0483 6.4046 2.0483 10.55 0 4.3486-0.7572 8.0642-2.2567 11.152-1.5123 3.0852-3.5835 5.4082-6.2039 6.961-2.628 1.5631-5.7336 2.3409-9.3146 2.3409-3.2862 0-6.1127-0.6812-8.4941-2.0563-2.3839-1.3748-4.2417-3.3927-5.5964-6.0488-1.3547-2.6558-2.0358-5.7234-2.0358-9.2078zm-6.2368-2.5288c0 6.7502 2.173 12.186 6.5191 16.304 4.3483 4.125 10.143 6.1838 17.376 6.1838 7.0985 0 12.662-1.9114 16.683-5.734 4.0334-3.8299 6.0489-8.9027 6.0489-15.244 0-6.8239-2.3434-12.535-7.0124-17.132-4.6737-4.5902-10.575-6.8877-17.681-6.8877-4.4526 0-8.2854 0.9023-11.508 2.7068-3.2224 1.8071-5.7639 4.4399-7.632 7.9042-1.8581 3.4667-2.7932 7.4364-2.7932 11.9zm-20.79-19.961h1.9318c1.9111 0 3.0575 0.4626 3.4336 1.3876 0.381 0.9252 0.5692 5.3425 0.5692 13.259v10.425c0 8.1989-0.1576 12.726-0.4955 13.567-0.3254 0.8385-1.3116 1.258-2.9483 1.258h-2.4908v1.9315c3.4033-0.1346 6.7606-0.2083 10.09-0.2083 2.7627 0 5.2841 0.0737 7.5306 0.2083v-1.9315h-2.3636c-1.4587 0-2.3737-0.178-2.7397-0.5236-0.3659-0.3483-0.5896-1.2276-0.6431-2.6458-0.1041-2.1935-0.1576-6.0996-0.1576-11.716v-10.616c0-7.9804 0.1805-12.37 0.5286-13.175 0.3458-0.811 1.459-1.2201 3.35-1.2201h2.0254v-1.9417c-2.5212 0.1474-5.2711 0.2211-8.2421 0.2211-3.4642 0-6.5953-0.0737-9.3784-0.2211v1.9417zm-6.9789 30.73-0.2542 5.472c-1.8273 1.2175-3.7361 2.1095-5.7311 2.7093-2.0053 0.5998-4.0842 0.8921-6.2572 0.8921-5.5432 0-9.9732-1.6801-13.313-5.04-3.3267-3.3698-4.9991-7.8633-4.9991-13.513 0-3.947 0.8489-7.4722 2.5415-10.573 1.69-3.0957 4.0969-5.5533 7.2128-7.3579 3.1186-1.7966 6.4048-2.6988 9.879-2.6988 2.7422 0 5.4592 0.3149 8.1482 0.9428 2.0052 0.4753 4.0308 1.4612 6.059 2.9633l0.6506-0.6174c-0.4295-0.9482-0.8388-1.9037-1.2073-2.8567-2.3941-1.1971-4.811-2.0892-7.2459-2.6992-2.4245-0.5998-4.8694-0.9023-7.3298-0.9023-5.0474 0-9.48 0.9735-13.3 2.9177-3.8328 1.9545-6.7607 4.6384-8.8192 8.072-2.0486 3.4361-3.0753 7.3196-3.0753 11.645 0 4.3256 1.0369 8.2014 3.1082 11.612 2.0665 3.4109 4.9966 6.059 8.7863 7.9373 3.7791 1.8808 8.4302 2.8137 13.943 2.8137 2.8973 0 6.2802-0.4729 10.151-1.416 1.9315-0.4546 3.4971-0.7903 4.7044-1.0088-0.9227-2.1935-1.4488-5.2914-1.5962-9.2945h-2.056zm-72.939-15.379h15.508l-7.7491 18.52-7.7593-18.52zm16.642-2.5212h-17.773l-2.0917-4.9558c-1.3751-3.2763-2.069-5.2891-2.069-6.0261 0-0.4726 0.1349-0.8082 0.3889-1.0165 0.2517-0.1985 0.9023-0.3686 1.9545-0.4958l2.9483-0.3354v-1.9417c-1.9621 0.1474-4.1785 0.2211-6.6461 0.2211-2.9509 0-5.5431-0.0737-7.7797-0.2211v1.9417l0.925 0.0306c1.4386 0.0431 2.3612 0.188 2.783 0.4423 0.4193 0.2641 0.8691 0.8946 1.3445 1.9009 1.4462 2.9508 2.9381 6.1429 4.4603 9.5663l8.4532 19.16c2.257 5.0806 3.7996 8.7761 4.6179 11.074h2.0917l15.557-36.209c1.0523-2.4577 1.7436-3.9393 2.1019-4.4425 0.3456-0.5034 0.7421-0.8592 1.1945-1.0701 0.4525-0.2211 1.4588-0.3685 3.0447-0.4524v-1.9417c-2.6659 0.1474-5.2075 0.2211-7.6297 0.2211-2.2595 0-5.2634-0.0737-9.0096-0.2211v1.9417l3.0447 0.188c1.0828 0.0737 1.7333 0.1907 1.9315 0.3381 0.3152 0.2211 0.46 0.5134 0.46 0.8615 0 0.3659-0.305 1.332-0.9124 2.8874l-3.3903 8.5546zm-88.151 34.153v-28.044c0-6.3867 0.1244-10.837 0.3583-13.358 0.1958-1.9239 0.5133-3.0904 0.9581-3.5022 0.4425-0.432 1.7436-0.737 3.8786-0.9176l2.5897-0.2084v-2.5619c-2.9508 0.1933-5.6117 0.2925-7.9931 0.2925-1.6495 0-5.4312-0.0992-11.361-0.2925v2.5619h2.9228c1.7586 0 2.9101 0.2492 3.4489 0.7345 0.5412 0.4881 0.8742 1.4437 1.0114 2.8848 0.305 2.9787 0.4422 7.0248 0.4422 12.136v20.175c0 3.7817-0.0405 7.5382-0.1244 11.239-0.0408 1.5781-0.2594 2.6456-0.6202 3.2276-0.3609 0.5797-0.9023 1.108-1.6087 1.563-0.6939 0.4601-1.6903 0.6965-2.9662 0.6965h-2.5058v2.5492c3.4362-0.1806 6.054-0.277 7.8687-0.277 1.9542 0 4.0867 0.0964 6.4148 0.277 2.6737-3.2709 5.2101-6.4582 7.5634-9.546 2.3715-3.1059 4.8393-6.2217 7.3732-9.3682l13.884-17.044c5.0017-6.1251 8.6182-10.364 10.835-12.746v26.063c0 10.903-0.1959 16.86-0.582 17.872-0.3889 1.0114-1.9519 1.6622-4.6817 1.9264l-3.0498 0.2923v2.5492c4.3512-0.1806 7.7315-0.277 10.143-0.277 2.5212 0 5.7617 0.0964 9.7393 0.277v-2.5492h-3.1184c-2.5188 0-3.9622-0.8465-4.3486-2.5237-0.2364-1.1081-0.3609-7.0401-0.3609-17.776v-18.304c0-4.9331 0.2211-10.822 0.6506-17.666-3.6853 0.5666-5.8175 0.9833-6.4148 1.2452-0.5947 0.2517-1.1642 0.6812-1.7053 1.2759-3.0042 3.3267-6.1506 7.0248-9.4624 11.084l-29.179 36.039zm-63.604-46.95c2.7703-0.409 5.2075-0.6072 7.3171-0.6072 5.7438 0 10.204 1.4689 13.386 4.4195 3.8325 3.5912 5.7541 8.8192 5.7541 15.694 0 5.9854-1.5962 10.542-4.7883 13.681-3.1924 3.1388-7.8534 4.7044-14.007 4.7044-2.15 0-4.7146-0.2084-7.6626-0.6404-0.2415-1.9749-0.3685-4.1987-0.3685-6.7096v-20.114c0-3.708 0.127-7.185 0.3685-10.428zm-6.6461-0.1573c0.3353 3.1819 0.493 8.7352 0.493 16.672v8.9235c0 3.6547-0.1143 6.7935-0.366 9.4416-0.15 1.5429-0.3379 2.4325-0.5692 2.6765-0.239 0.2515-1.0803 0.4726-2.539 0.6809l-2.4576 0.3688v1.9315c3.38-0.0966 5.6599-0.1474 6.8238-0.1474l8.2726 0.061 6.7428 0.1167c2.7068 0.0409 5.4797-0.2211 8.3364-0.7979 2.8437-0.5667 5.4261-1.7206 7.7491-3.4515 2.3179-1.7334 4.0816-3.9087 5.2889-6.5216 1.2098-2.6252 1.8173-5.637 1.8173-9.0604 0-6.9307-2.3307-12.665-7.0022-17.199-4.6635-4.534-10.763-6.7935-18.281-6.7935l-3.7893 0.0839c-3.7055 0.1474-6.0591 0.2186-7.0453 0.2186-1.6571 0-3.7689-0.1219-6.3283-0.366v1.4715l2.8542 1.6903zm-40.202 14.215h15.508l-7.7491 18.52-7.7593-18.52zm16.642-2.5211h-17.775l-2.0892-4.9536c-1.3748-3.276-2.0687-5.2914-2.0687-6.0259 0-0.4728 0.1346-0.8081 0.3889-1.0165 0.2514-0.2009 0.9023-0.3685 1.9519-0.4957l2.9506-0.3354v-1.9443c-1.9647 0.1474-4.1782 0.2211-6.6461 0.2211-2.948 0-5.5431-0.0737-7.7797-0.2211v1.9443l0.9227 0.0303c1.4386 0.0409 2.3635 0.1908 2.7831 0.4423 0.4192 0.2619 0.8716 0.8923 1.3444 1.8986 1.4511 2.9531 2.9404 6.143 4.4629 9.5664l8.4532 19.16c2.2544 5.0805 3.7996 8.776 4.6179 11.076h2.0892l15.559-36.212c1.0497-2.4551 1.7433-3.9342 2.1016-4.4427 0.3459-0.5006 0.7424-0.8589 1.1971-1.0673 0.4499-0.2211 1.459-0.3685 3.0424-0.4524v-1.9443c-2.6662 0.1474-5.2078 0.2211-7.6323 0.2211-2.2595 0-5.2611-0.0737-9.0073-0.2211v1.9443l3.0449 0.188c1.0826 0.0737 1.7309 0.1907 1.9316 0.3381 0.3126 0.2186 0.4626 0.5134 0.4626 0.8589 0 0.3685-0.3076 1.3343-0.915 2.8874l-3.3906 8.5547zm-67.551-11.536c2.7703-0.409 5.205-0.6072 7.3171-0.6072 5.7439 0 10.204 1.4689 13.386 4.4195 3.8325 3.5912 5.7515 8.8192 5.7515 15.694 0 5.9854-1.5936 10.542-4.7857 13.681-3.1924 3.1388-7.8534 4.7044-14.004 4.7044-2.1552 0-4.7146-0.2084-7.6652-0.6404-0.244-1.9749-0.3659-4.1987-0.3659-6.7096v-20.114c0-3.708 0.1219-7.185 0.3659-10.428zm-6.6461-0.1573c0.3354 3.1819 0.4904 8.7352 0.4904 16.672v8.9235c0 3.6547-0.1142 6.7935-0.3659 9.4416-0.1474 1.5429-0.3354 2.4325-0.5667 2.6765-0.2415 0.2515-1.0803 0.4726-2.539 0.6809l-2.4576 0.3688v1.9315c3.38-0.0966 5.6599-0.1474 6.8238-0.1474l8.273 0.061 6.7399 0.1167c2.7093 0.0409 5.4796-0.2211 8.3364-0.7979 2.8465-0.5667 5.4286-1.7206 7.7491-3.4515 2.3204-1.7334 4.0841-3.9087 5.2914-6.5216 1.2073-2.6252 1.8173-5.637 1.8173-9.0604 0-6.9307-2.3307-12.665-7.0044-17.199-4.6613-4.534-10.761-6.7935-18.276-6.7935l-3.7919 0.0839c-3.7054 0.1474-6.0565 0.2186-7.0452 0.2186-1.6594 0-3.7664-0.1219-6.3309-0.366v1.4715l2.8567 1.6903zm-26.165-1.1336h1.9341c1.9089 0 3.0549 0.4626 3.4311 1.385 0.3787 0.9253 0.5669 5.345 0.5669 13.262v10.425c0 8.1989-0.1576 12.726-0.4932 13.564-0.3226 0.8388-1.3113 1.2609-2.9506 1.2609h-2.4883v1.9315c3.4033-0.1372 6.7632-0.2112 10.09-0.2112 2.7626 0 5.2812 0.074 7.5279 0.2112v-1.9315h-2.361c-1.4612 0-2.3737-0.1806-2.7422-0.5236-0.3659-0.3483-0.587-1.2302-0.6381-2.6484-0.1066-2.1934-0.1601-6.0996-0.1601-11.716v-10.616c0-7.9778 0.1805-12.364 0.5261-13.175 0.3458-0.8081 1.459-1.2172 3.3497-1.2172h2.0256v-1.9443c-2.5186 0.1474-5.271 0.2211-8.242 0.2211-3.4642 0-6.5928-0.0737-9.3759-0.2211v1.9443zm-5.4056 39.77c-0.5772-2.1297-0.8822-4.9558-0.9227-8.481h-2.1322v2.4551c0 1.5962-0.2112 2.689-0.6407 3.2531-0.4294 0.5796-1.5528 1.1868-3.3701 1.8402-1.8144 0.6378-3.7284 0.9658-5.7336 0.9658-3.2862 0-5.8584-0.8286-7.7363-2.4883-1.8808-1.6597-2.8137-3.8021-2.8137-6.4046 0-1.6392 0.3762-3.0447 1.154-4.2216 0.7676-1.1869 1.8071-2.0356 3.1056-2.5617 1.304-0.5133 4.0666-0.9759 8.2854-1.3649 4.2319-0.4118 7.0883-0.9555 8.5677-1.6265 1.4919-0.6837 2.6762-1.7665 3.5683-3.2661 0.8946-1.4918 1.3368-3.2658 1.3368-5.3243 0-4.1147-1.7232-7.6629-5.167-10.634-3.4438-2.9837-8.0311-4.4628-13.775-4.4628-1.9749 0-3.9571 0.2007-5.955 0.5972-2.0027 0.3991-4.0206 0.9888-6.0463 1.7637 0.3685 2.4679 0.5465 5.6297 0.5261 9.4825h2.0866v-1.5452c0-1.9822 0.1069-3.2125 0.305-3.6827 0.2109-0.4726 0.6965-0.9786 1.4514-1.512 1.1335-0.7983 2.4678-1.4083 4.0308-1.8275 1.5554-0.4193 3.2454-0.6302 5.0397-0.6302 3.8835 0 6.8775 0.9122 8.987 2.7397 2.1121 1.8173 3.1717 4.1375 3.1717 6.9511 0 1.6368-0.3685 3.0218-1.0826 4.1681-0.714 1.1336-1.7206 1.9823-3.0143 2.5313-1.2909 0.5568-3.6825 0.976-7.1697 1.2683-4.6307 0.371-7.7794 0.915-9.4391 1.6596-1.6571 0.737-2.961 1.901-3.9064 3.4869-0.9428 1.5962-1.4182 3.5683-1.4182 5.9219 0 4.0002 1.4514 7.2762 4.3384 9.8152 2.8973 2.5416 6.8877 3.8124 12.001 3.8124 2.046 0 4.1046-0.2211 6.1608-0.6634 2.0611-0.4396 4.1273-1.1106 6.2065-2.0154zm-47.341-19.496c2.0053-2.8999 4.4932-6.2572 7.4645-10.087l5.9114-7.6677c1.0522-1.3113 1.7436-2.056 2.0891-2.2467 0.3484-0.1778 0.7169-0.2719 1.0828-0.2719h0.798v-1.9443c-1.7028 0.1474-3.1921 0.2211-4.4629 0.2211-1.1639 0-2.3941-0.0737-3.6853-0.2211l-10.898 14.71c-2.0279 2.7094-4.1984 5.3575-6.5188 7.9373l0.3149 1.0395c1.1872-0.0941 2.0665-0.1474 2.6459-0.1474 3.4208 0 6.0996 0.8818 8.0413 2.6456 1.9315 1.7665 2.9075 4.1173 2.9075 7.0681 0 2.6431-0.8286 4.7143-2.4653 6.2062-1.6393 1.4794-4.013 2.2241-7.111 2.2241-2.1503 0-4.3132-0.3991-6.4862-1.1971-0.2412-3.2661-0.3685-6.7504-0.3685-10.456v-14.858c0-7.2433 0.1805-11.254 0.5235-12.042 0.3484-0.788 1.4718-1.1869 3.3829-1.1869h2.4043v-1.9443c-3.4132 0.1474-6.2268 0.2211-8.4608 0.2211-1.7637 0-4.9558-0.0737-9.5664-0.2211v1.9443h2.3103c1.764 0 2.8034 0.3889 3.1286 1.1537 0.3356 0.7676 0.4932 4.8087 0.4932 12.138v14.794c0 6.3513-0.1882 9.9094-0.5669 10.664-0.3785 0.7676-1.6163 1.1463-3.7055 1.1463h-1.6597v1.9618c3.8123-0.1576 6.7198-0.2415 8.7353-0.2415 1.3547 0 3.2964 0.0536 5.8481 0.1576 2.9509 0.0942 5.0704 0.1474 6.3641 0.1474 3.5478 0 6.2368-0.3685 8.0745-1.1233 1.8349-0.7447 3.2326-1.8247 4.1757-3.2429 0.9556-1.4181 1.4383-3.1084 1.4383-5.0728 0-2.8973-1.0369-5.4491-3.1286-7.6629-2.0789-2.2162-5.1007-3.7284-9.0502-4.5468zm-48.79-1.3241v-7.5381l0.0329-4.3359c0-2.7094 0.0306-4.6814 0.0941-5.942 2.9914-0.2211 6.2039-0.3356 9.6273-0.3356 2.3 0 4.2191 0.1043 5.7847 0.3152 0.9986 0.1142 2.0687 0.3863 3.1895 0.7979 0.5159 1.8046 1.042 4.0513 1.5758 6.7607h2.0585c-0.5539-4.4833-0.8283-7.4849-0.8283-8.9768l0.0635-1.3853c-2.3638-0.231-4.6842-0.3379-6.9511-0.3379l-4.8291 0.0839c-5.3345 0.1474-9.2511 0.2211-11.752 0.2211-2.4018 0-5.5913-0.0737-9.574-0.2211v1.9443h0.9556c1.7867 0 2.91 0.1778 3.3701 0.5261 0.4626 0.3456 0.7676 1.1639 0.9278 2.4551 0.155 1.2912 0.2287 4.1477 0.2287 8.5572v16.884c0 2.7703-0.0612 5.04-0.1984 6.8011-0.1372 1.7638-0.2846 2.8134-0.432 3.1491-0.1576 0.3378-0.3787 0.6023-0.6608 0.7902-0.2948 0.1781-1.1766 0.3459-2.6484 0.4805l-2.3712 0.2543v1.9086h3.3296l3.2556-0.0942c1.8247-0.0634 3.21-0.0941 4.1553-0.0941l11.813 0.1576 5.5939 0.0307c1.9114 0.0102 3.8353-0.0635 5.7872-0.2518-0.7778-2.4117-1.22-5.5632-1.2937-9.4365h-2.0968c0 2.2567-0.1066 4.1247-0.3353 5.6268-2.4171 0.9022-5.3881 1.3547-8.9158 1.3547-2.8134 0-5.7541-0.1245-8.8294-0.3686 0.0204-1.9315 0-3.863-0.0635-5.7843l-0.0635-4.735v-6.247c2.0256-0.1273 3.8225-0.1882 5.3881-0.1882 4.8796 0 7.6422 0.1678 8.2828 0.5133 0.648 0.3356 0.976 1.3853 0.976 3.149v1.9951h2.0891c-0.1474-3.0955-0.2211-5.5633-0.2211-7.4109 0-1.9418 0.0737-4.2444 0.2211-6.8877h-2.0891v1.7867c0 1.9596-0.3889 3.1694-1.154 3.6091-0.7673 0.4422-3.4843 0.6607-8.138 0.6607-1.7206 0-3.5047-0.0839-5.3549-0.2415zm-38.174-21.374c-0.9252 2.7399-1.8578 5.3093-2.8261 7.7162l-11.015 27.53c-1.5729 3.9776-2.4956 6.1532-2.77 6.5192-0.2645 0.3659-1.1438 0.5567-2.6458 0.5567h-1.2581v1.9315c3.2227-0.1372 5.9624-0.2112 8.2066-0.2112 2.3865 0 5.2407 0.074 8.5598 0.2112v-2.2062h-3.0447c-1.0497 0-1.7232-0.104-2.0282-0.2922-0.3152-0.1982-0.46-0.5057-0.46-0.9151 0-0.2616 0.0408-0.5539 0.1448-0.892l4.0031-10.552 8.3032-21.186 8.0972 20.21c2.717 6.8672 4.0819 10.888 4.0819 12.054 0 0.9456-0.5567 1.4386-1.6903 1.4791l-1.258 0.0941-2.6481 0.2747v1.9315c2.732-0.1372 4.9787-0.2112 6.7399-0.2112 1.8377 0 4.1581 0.074 6.9511 0.2112v-1.9315h-1.2274c-0.9862 0-1.7005-0.2313-2.1427-0.6914-0.4422-0.4651-1.2376-2.1019-2.3839-4.9053l-10.362-25.314c-1.9519-4.7653-3.3395-8.5674-4.1579-11.411h-3.1694zm-40.621 2.4247h1.9315c1.9114 0 3.0549 0.4626 3.4311 1.385 0.3787 0.9253 0.5669 5.345 0.5669 13.262v10.425c0 8.1989-0.155 12.726-0.4932 13.564-0.3226 0.8388-1.3113 1.2609-2.9506 1.2609h-2.4857v1.9315c3.4007-0.1372 6.7606-0.2112 10.09-0.2112 2.7601 0 5.2787 0.074 7.528 0.2112v-1.9315h-2.3635c-1.4616 0-2.3712-0.1806-2.74-0.5236-0.3685-0.3483-0.5871-1.2302-0.6404-2.6484-0.1068-2.1934-0.1576-6.0996-0.1576-11.716v-10.616c0-7.9778 0.1781-12.364 0.5236-13.175 0.3481-0.8081 1.459-1.2172 3.3497-1.2172h2.0282v-1.9443c-2.5211 0.1474-5.271 0.2211-8.2446 0.2211-3.4642 0-6.5928-0.0737-9.3733-0.2211v1.9443zm-44.078 34.878v-21.25c0-4.839 0.0941-8.2092 0.2747-10.12 0.1474-1.459 0.3886-2.3434 0.7242-2.656 0.3354-0.3252 1.3215-0.5565 2.9407-0.6937l1.9619-0.1576v-1.9443c-2.2366 0.1474-4.252 0.2211-6.0591 0.2211-1.2478 0-4.1148-0.0737-8.608-0.2211v1.9443h2.2162c1.3317 0 2.2033 0.188 2.6152 0.5565 0.4068 0.3685 0.6582 1.0904 0.7625 2.1832 0.2339 2.2569 0.3379 5.3221 0.3379 9.1979v15.285c0 2.8695-0.0303 5.7135-0.0941 8.5166-0.0329 1.1946-0.2007 2.0053-0.4725 2.4449-0.2722 0.44-0.6812 0.8414-1.2175 1.1897-0.5261 0.343-1.281 0.5236-2.2493 0.5236h-1.8984v1.9315c2.6025-0.1372 4.5873-0.2112 5.965-0.2112 1.4791 0 3.0954 0.074 4.8594 0.2112 2.0282-2.478 3.947-4.8951 5.7311-7.2331 1.7969-2.3537 3.6649-4.7146 5.5888-7.0986l10.519-12.914c3.7896-4.6409 6.5293-7.8534 8.2091-9.6605v19.75c0 8.2627-0.1474 12.776-0.4397 13.544-0.2948 0.7676-1.4816 1.258-3.5504 1.4587l-2.3102 0.2214v1.9315c3.2964-0.1372 5.8606-0.2112 7.6856-0.2112 1.9111 0 4.3687 0.074 7.3831 0.2112v-1.9315h-2.3635c-1.9114 0-3.0016-0.6406-3.2964-1.9114-0.1781-0.8413-0.2722-5.332-0.2722-13.47v-13.869c0-3.7361 0.1678-8.2015 0.4933-13.386-2.7933 0.4297-4.4096 0.7449-4.862 0.943-0.4524 0.188-0.8819 0.5159-1.2912 0.9658-2.2771 2.5211-4.661 5.3246-7.1722 8.3996l-22.111 27.309zm-73.237 18.324v2.5492c5.5559-0.1803 9.5867-0.277 12.095-0.277 2.6609 0 6.5546 0.0967 11.694 0.277v-2.5492h-2.9634c-2.5364 0-4.0739-0.4853-4.5847-1.4689-0.5162-0.9709-0.7778-5.3754-0.7778-13.231v-15.908c0-5.8201 0.3177-9.8637 0.9555-12.136 0.6381-2.2748 2.2876-4.2012 4.9332-5.7642 2.6583-1.5681 6.209-2.3584 10.642-2.3584 4.572 0 8.4251 0.8461 11.569 2.5237 2.1629 1.1639 3.7412 2.9633 4.7526 5.4184 0.9964 2.4375 1.497 7.0934 1.497 13.938v15.31c0 7.0807-0.3203 11.139-0.9556 12.151-0.6381 1.014-2.3839 1.5248-5.2534 1.5248h-2.1195v2.5492c5.6115-0.1803 9.1749-0.277 10.684-0.277 2.4678 0 5.5128 0.0967 9.17 0.277v-2.5492h-2.755c-2.1325 0-3.52-0.582-4.1275-1.7306-0.6126-1.1514-0.9023-5.1823-0.9023-12.11v-15.229c0-6.9536-0.3455-11.638-1.0394-14.062-0.6914-2.4273-1.9545-4.6-3.7846-6.5545-1.8144-1.952-4.2519-3.4923-7.3017-4.6256-3.0473-1.1387-6.6206-1.7056-10.738-1.7056-4.252 0-7.9651 0.5111-11.167 1.525-3.1847 1.0092-5.584 2.257-7.2054 3.7514-1.6061 1.4842-2.7703 3.314-3.4894 5.4618-0.7093 2.1475-1.0701 5.8048-1.0701 10.972l0.0839 7.7184v12.372c0 7.6349-0.2211 11.917-0.6761 12.832-0.4447 0.9275-1.8706 1.385-4.2826 1.385h-2.8819z" style="fill:#252d77;fill-rule:evenodd"/><path d="m1017.1 525.68c1.1412 0 2.1172-0.3963 2.9202-1.2019 0.798-0.8059 1.2048-1.7793 1.2048-2.9406 0-1.1413-0.4068-2.1223-1.2048-2.928-0.803-0.8158-1.779-1.2225-2.9202-1.2225-1.1413 0-2.1172 0.4067-2.9305 1.2225-0.8158 0.8057-1.2223 1.7867-1.2223 2.928 0 1.1412 0.4065 2.1171 1.2047 2.9304 0.8057 0.8158 1.7893 1.2121 2.9481 1.2121zm55.248 0c1.1412 0 2.1172-0.3963 2.9202-1.2019 0.7983-0.8059 1.2048-1.7793 1.2048-2.9406 0-1.1413-0.4065-2.1223-1.2048-2.928-0.803-0.8158-1.779-1.2225-2.9202-1.2225-1.141 0-2.1169 0.4067-2.9302 1.2225-0.8161 0.8057-1.2226 1.7867-1.2226 2.928 0 1.1412 0.4065 2.1171 1.2048 2.9304 0.8056 0.8158 1.7892 1.2121 2.948 1.2121zm-82.867 0c1.1412 0 2.1146-0.3963 2.9202-1.2019 0.7954-0.8059 1.2048-1.7793 1.2048-2.9406 0-1.1413-0.4094-2.1223-1.2048-2.928-0.8056-0.8158-1.779-1.2225-2.9202-1.2225-1.1438 0-2.1172 0.4067-2.9305 1.2225-0.8158 0.8057-1.2223 1.7867-1.2223 2.928 0 1.1412 0.4065 2.1171 1.2045 2.9304 0.8058 0.8158 1.7869 1.2121 2.9483 1.2121zm55.248 0c1.1412 0 2.1146-0.3963 2.9202-1.2019 0.7954-0.8059 1.2048-1.7793 1.2048-2.9406 0-1.1413-0.4094-2.1223-1.2048-2.928-0.8056-0.8158-1.779-1.2225-2.9202-1.2225-1.1438 0-2.1172 0.4067-2.9305 1.2225-0.8158 0.8057-1.2223 1.7867-1.2223 2.928 0 1.1412 0.4065 2.1171 1.2048 2.9304 0.8056 0.8158 1.7866 1.2121 2.948 1.2121zm-82.867 0c1.1412 0 2.1143-0.3963 2.9202-1.2019 0.7954-0.8059 1.2022-1.7793 1.2022-2.9406 0-1.1413-0.4068-2.1223-1.2022-2.928-0.8059-0.8158-1.779-1.2225-2.9202-1.2225-1.1438 0-2.1172 0.4067-2.9305 1.2225-0.8158 0.8057-1.2226 1.7867-1.2226 2.928 0 1.1412 0.4068 2.1171 1.2048 2.9304 0.8033 0.8158 1.7866 1.2121 2.9483 1.2121zm-27.621 0c1.141 0 2.1169-0.3963 2.9228-1.2019 0.7954-0.8059 1.2019-1.7793 1.2019-2.9406 0-1.1413-0.4065-2.1223-1.2019-2.928-0.8059-0.8158-1.7818-1.2225-2.9228-1.2225-1.1412 0-2.1172 0.4067-2.9304 1.2225-0.8133 0.8057-1.2226 1.7867-1.2226 2.928 0 1.1412 0.4093 2.1171 1.2047 2.9304 0.8082 0.8158 1.7892 1.2121 2.9483 1.2121zm-27.616 0c1.1412 0 2.1146-0.3963 2.9177-1.2019 0.7982-0.8059 1.2047-1.7793 1.2047-2.9406 0-1.1413-0.4065-2.1223-1.2047-2.928-0.8031-0.8158-1.7765-1.2225-2.9177-1.2225-1.1435 0-2.1169 0.4067-2.9327 1.2225-0.8159 0.8057-1.2201 1.7867-1.2201 2.928 0 1.1412 0.4042 2.1171 1.2048 2.9304 0.803 0.8158 1.7841 1.2121 2.948 1.2121zm-27.621 0c1.1413 0 2.1172-0.3963 2.9228-1.2019 0.7932-0.8059 1.2022-1.7793 1.2022-2.9406 0-1.1413-0.409-2.1223-1.2022-2.928-0.8056-0.8158-1.7815-1.2225-2.9228-1.2225-1.1435 0-2.1169 0.4067-2.9301 1.2225-0.8136 0.8057-1.2226 1.7867-1.2226 2.928 0 1.1412 0.409 2.1171 1.2047 2.9304 0.8056 0.8158 1.7892 1.2121 2.948 1.2121zm-27.619 0c1.1413 0 2.1147-0.3963 2.9203-1.2019 0.7979-0.8059 1.2021-1.7793 1.2021-2.9406 0-1.1413-0.4042-2.1223-1.2021-2.928-0.8056-0.8158-1.779-1.2225-2.9203-1.2225-1.1412 0-2.1169 0.4067-2.9304 1.2225-0.8158 0.8057-1.2223 1.7867-1.2223 2.928 0 1.1412 0.4065 2.1171 1.2047 2.9304 0.8056 0.8158 1.7867 1.2121 2.948 1.2121zm-27.619 0c1.1412 0 2.1147-0.3963 2.9228-1.2019 0.7929-0.8059 1.2022-1.7793 1.2022-2.9406 0-1.1413-0.4093-2.1223-1.2022-2.928-0.8081-0.8158-1.7816-1.2225-2.9228-1.2225-1.1438 0-2.1172 0.4067-2.933 1.2225-0.8132 0.8057-1.2197 1.7867-1.2197 2.928 0 1.1412 0.4065 2.1171 1.2044 2.9304 0.8059 0.8158 1.7895 1.2121 2.9483 1.2121zm-27.619 0c1.1412 0 2.1147-0.3963 2.9203-1.2019 0.7979-0.8059 1.2021-1.7793 1.2021-2.9406 0-1.1413-0.4042-2.1223-1.2021-2.928-0.8056-0.8158-1.7791-1.2225-2.9203-1.2225-1.1438 0-2.1172 0.4067-2.9304 1.2225-0.8158 0.8057-1.2226 1.7867-1.2226 2.928 0 1.1412 0.4068 2.1171 1.2047 2.9304 0.8033 0.8158 1.7867 1.2121 2.9483 1.2121zm-27.621 0c1.1435 0 2.1169-0.3963 2.9228-1.2019 0.7954-0.8059 1.2044-1.7793 1.2044-2.9406 0-1.1413-0.409-2.1223-1.2044-2.928-0.8059-0.8158-1.7793-1.2225-2.9228-1.2225-1.1413 0-2.1172 0.4067-2.9305 1.2225-0.8158 0.8057-1.22 1.7867-1.22 2.928 0 1.1412 0.4042 2.1171 1.2047 2.9304 0.8056 0.8158 1.7867 1.2121 2.9458 1.2121zm-27.619 0c1.1409 0 2.1143-0.3963 2.9225-1.2019 0.7957-0.8059 1.2022-1.7793 1.2022-2.9406 0-1.1413-0.4065-2.1223-1.2022-2.928-0.8082-0.8158-1.7816-1.2225-2.9225-1.2225-1.1413 0-2.1147 0.4067-2.9305 1.2225-0.8133 0.8057-1.2226 1.7867-1.2226 2.928 0 1.1412 0.4093 2.1171 1.2047 2.9304 0.8057 0.8158 1.7893 1.2121 2.9484 1.2121zm-27.619 0c1.1412 0 2.1172-0.3963 2.9228-1.2019 0.7957-0.8059 1.2022-1.7793 1.2022-2.9406 0-1.1413-0.4065-2.1223-1.2022-2.928-0.8056-0.8158-1.7816-1.2225-2.9228-1.2225-1.141 0-2.1169 0.4067-2.9302 1.2225-0.8158 0.8057-1.2226 1.7867-1.2226 2.928 0 1.1412 0.4068 2.1171 1.2047 2.9304 0.8082 0.8158 1.7893 1.2121 2.9481 1.2121zm-27.619 0c1.1412 0 2.1146-0.3963 2.9202-1.2019 0.798-0.8059 1.2047-1.7793 1.2047-2.9406 0-1.1413-0.4067-2.1223-1.2047-2.928-0.8056-0.8158-1.779-1.2225-2.9202-1.2225-1.141 0-2.1169 0.4067-2.9305 1.2225-0.8158 0.8057-1.2223 1.7867-1.2223 2.928 0 1.1412 0.4065 2.1171 1.2047 2.9304 0.8056 0.8158 1.7867 1.2121 2.9481 1.2121zm-27.619 0c1.1412 0 2.1146-0.3963 2.9202-1.2019 0.7954-0.8059 1.2047-1.7793 1.2047-2.9406 0-1.1413-0.4093-2.1223-1.2047-2.928-0.8056-0.8158-1.779-1.2225-2.9202-1.2225-1.1438 0-2.1172 0.4067-2.9305 1.2225-0.8158 0.8057-1.2223 1.7867-1.2223 2.928 0 1.1412 0.4065 2.1171 1.2047 2.9304 0.8056 0.8158 1.7893 1.2121 2.9481 1.2121zm-27.621 0c1.1412 0 2.1172-0.3963 2.9228-1.2019 0.798-0.8059 1.2022-1.7793 1.2022-2.9406 0-1.1413-0.4042-2.1223-1.2022-2.928-0.8056-0.8158-1.7816-1.2225-2.9228-1.2225s-2.1146 0.4067-2.9279 1.2225c-0.8158 0.8057-1.2248 1.7867-1.2248 2.928 0 1.1412 0.409 2.1171 1.2044 2.9304 0.8084 0.8158 1.7892 1.2121 2.9483 1.2121zm-27.616 0c1.1409 0 2.1143-0.3963 2.9202-1.2019 0.7954-0.8059 1.2047-1.7793 1.2047-2.9406 0-1.1413-0.4093-2.1223-1.2047-2.928-0.8059-0.8158-1.7793-1.2225-2.9202-1.2225-1.1438 0-2.1172 0.4067-2.933 1.2225-0.8159 0.8057-1.2201 1.7867-1.2201 2.928 0 1.1412 0.4042 2.1171 1.2047 2.9304 0.8057 0.8158 1.7867 1.2121 2.9484 1.2121zm-27.621 0c1.141 0 2.1169-0.3963 2.9228-1.2019 0.7954-0.8059 1.2019-1.7793 1.2019-2.9406 0-1.1413-0.4065-2.1223-1.2019-2.928-0.8059-0.8158-1.7818-1.2225-2.9228-1.2225-1.1412 0-2.1146 0.4067-2.9279 1.2225-0.8158 0.8057-1.2251 1.7867-1.2251 2.928 0 1.1412 0.4093 2.1171 1.2047 2.9304 0.8056 0.8158 1.7892 1.2121 2.9483 1.2121zm-27.619 0c1.1412 0 2.1172-0.3963 2.9203-1.2019 0.7982-0.8059 1.2047-1.7793 1.2047-2.9406 0-1.1413-0.4065-2.1223-1.2047-2.928-0.8031-0.8158-1.7791-1.2225-2.9203-1.2225-1.1409 0-2.1169 0.4067-2.9302 1.2225-0.8158 0.8057-1.22 1.7867-1.22 2.928 0 1.1412 0.4042 2.1171 1.2022 2.9304 0.8056 0.8158 1.7892 1.2121 2.948 1.2121zm-27.619 0c1.1412 0 2.1147-0.3963 2.9228-1.2019 0.7957-0.8059 1.2022-1.7793 1.2022-2.9406 0-1.1413-0.4065-2.1223-1.2022-2.928-0.8081-0.8158-1.7816-1.2225-2.9228-1.2225-1.1435 0-2.1169 0.4067-2.9302 1.2225-0.8135 0.8057-1.2225 1.7867-1.2225 2.928 0 1.1412 0.409 2.1171 1.2047 2.9304 0.8056 0.8158 1.7892 1.2121 2.948 1.2121zm-27.619 0c1.1412 0 2.1147-0.3963 2.9203-1.2019 0.7979-0.8059 1.2047-1.7793 1.2047-2.9406 0-1.1413-0.4068-2.1223-1.2047-2.928-0.8056-0.8158-1.7791-1.2225-2.9203-1.2225-1.1438 0-2.1169 0.4067-2.9304 1.2225-0.8159 0.8057-1.2223 1.7867-1.2223 2.928 0 1.1412 0.4064 2.1171 1.2047 2.9304 0.8056 0.8158 1.7867 1.2121 2.948 1.2121zm-27.619 0c1.1412 0 2.1147-0.3963 2.9203-1.2019 0.7954-0.8059 1.2047-1.7793 1.2047-2.9406 0-1.1413-0.4093-2.1223-1.2047-2.928-0.8056-0.8158-1.7791-1.2225-2.9203-1.2225-1.1438 0-2.1172 0.4067-2.9304 1.2225-0.8159 0.8057-1.2223 1.7867-1.2223 2.928 0 1.1412 0.4064 2.1171 1.2044 2.9304 0.8059 0.8158 1.787 1.2121 2.9483 1.2121zm-27.619 0c1.1412 0 2.1147-0.3963 2.9203-1.2019 0.7954-0.8059 1.2021-1.7793 1.2021-2.9406 0-1.1413-0.4067-2.1223-1.2021-2.928-0.8056-0.8158-1.7791-1.2225-2.9203-1.2225-1.1438 0-2.1172 0.4067-2.9304 1.2225-0.8159 0.8057-1.2226 1.7867-1.2226 2.928 0 1.1412 0.4067 2.1171 1.2047 2.9304 0.8033 0.8158 1.7867 1.2121 2.9483 1.2121" style="fill:#252d77;fill-rule:evenodd"/><path d="m172.78 631.79c-3.0421-46.475 22.726-86.994 68.983-106.04 29.347-12.093 75.962-6.317 100.57 14.348 10.11 8.483 20.131 22.2 25.142 33.661 1.7895 4.0609 4.7421 9.3852 7.1578 15.883h-53.146c-21.384 0-57.709-2.4367-62.899 28.968-6.084 37.09 40.084 50.807 62.273 20.304 5.5471-7.7609 2.9526-35.014 5.2787-10.739 1.6106 16.605-4.5629 33.57-27.468 42.956-6.5316 2.617-18.7 4.6024-24.337 5.5046 15.121 10.107 50.641 0.271 53.594-5.5046-12.705 24.005-44.646 28.336-47.331 28.156 11.631 4.5122 37.22-2.1657 46.346-5.3243 14.584-5.0536 26.663-13.175 38.473-26.351 5.1893-5.6854 10.826-14.349 13.331-20.305-2.4157 8.0317-4.0261 14.439-10.558 24.997-16.463 26.441-39.278 39.436-68.625 49.273-18.252 6.1367-43.931 4.0612-60.304-2.9778-25.857-11.28-43.931-25.719-56.994-52.07-4.7421-9.5658-9.4839-23.192-9.4839-34.743" style="fill:#191497;fill-rule:evenodd"/></g></g></svg>
